<?xml version="1.0" encoding="UTF-8"?>
<!DOCTYPE svg PUBLIC "-//W3C//DTD SVG 1.1//EN" "http://www.w3.org/Graphics/SVG/1.1/DTD/svg11.dtd">
<!-- Creator: CorelDRAW 2020 (64-Bit) -->
<svg xmlns="http://www.w3.org/2000/svg" xml:space="preserve" width="183px" height="33px" version="1.1" shape-rendering="geometricPrecision" text-rendering="geometricPrecision" image-rendering="optimizeQuality" fill-rule="evenodd" clip-rule="evenodd"
viewBox="0 0 23209 4174"
 xmlns:xlink="http://www.w3.org/1999/xlink"
 xmlns:xodm="http://www.corel.com/coreldraw/odm/2003">
 <g id="Слой_x0020_1">
  <metadata id="CorelCorpID_0Corel-Layer"/>
  <polygon fill="black" fill-rule="nonzero" points="6125,1071 5342,3274 5214,3274 6125,722 7039,3274 6911,3274 "/>
  <path id="1" fill="black" fill-rule="nonzero" d="M8404 725l0 2549 -117 0 0 -1144 -845 0 0 1144 -117 0 0 -1595c0,-134 24,-258 73,-373 49,-115 116,-216 202,-302 86,-86 188,-154 304,-204 117,-50 244,-75 382,-75l117 0zm-961 1289l845 0 0 -1180c-114,0 -222,23 -324,69 -102,46 -192,107 -270,184 -78,77 -139,166 -184,270 -45,103 -67,211 -67,322l0 335z"/>
  <path id="2" fill="black" fill-rule="nonzero" d="M9938 3274l-175 0 -517 -514c-141,63 -288,95 -441,95l0 419 -120 0 0 -2549 120 0 0 2010c134,0 259,-26 377,-76 118,-51 220,-120 308,-208 87,-87 157,-190 208,-308 51,-118 77,-243 77,-377l0 -1042 117 0 0 1042c0,194 -47,374 -142,539 -95,165 -226,297 -393,397l583 572z"/>
  <path id="3" fill="black" fill-rule="nonzero" d="M10152 1836c0,-153 29,-297 87,-432 58,-135 138,-253 240,-353 102,-101 220,-180 355,-239 135,-58 279,-87 432,-87 153,0 297,29 432,87 135,58 253,138 353,239 101,101 180,219 239,353 58,135 87,279 87,432 0,153 -29,297 -87,432 -58,135 -138,252 -239,351 -101,100 -219,179 -353,237 -135,58 -279,87 -432,87 -153,0 -297,-29 -432,-86 -135,-57 -253,-136 -355,-237 -102,-101 -182,-219 -240,-353 -58,-135 -87,-279 -87,-432zm117 0c0,136 26,265 78,386 52,121 124,227 215,317 91,90 197,161 319,213 121,52 250,78 386,78 136,0 264,-26 384,-78 120,-52 225,-124 315,-215 90,-91 161,-197 213,-317 52,-120 78,-248 78,-384 0,-136 -26,-264 -78,-384 -52,-120 -123,-226 -213,-317 -90,-91 -195,-163 -315,-215 -120,-52 -248,-78 -384,-78 -136,0 -265,26 -386,78 -121,52 -228,123 -319,213 -91,90 -163,196 -215,317 -52,121 -78,250 -78,386zm33 1326l1923 0 0 113 -1923 0 0 -113z"/>
  <polygon id="4" fill="black" fill-rule="nonzero" points="14643,3274 14643,842 13849,842 13849,3274 13729,3274 13729,725 14759,725 14759,3274 "/>
  <path id="5" fill="black" fill-rule="nonzero" d="M16107 725l0 2549 -117 0 0 -1144 -845 0 0 1144 -117 0 0 -1595c0,-134 24,-258 73,-373 49,-115 116,-216 202,-302 86,-86 188,-154 304,-204 117,-50 244,-75 382,-75l117 0zm-961 1289l845 0 0 -1180c-114,0 -222,23 -324,69 -102,46 -192,107 -270,184 -78,77 -139,166 -184,270 -45,103 -67,211 -67,322l0 335z"/>
  <path id="6" fill="black" fill-rule="nonzero" d="M17778 2000c0,175 -33,340 -100,495 -67,155 -158,290 -273,404 -115,114 -251,205 -406,273 -155,68 -322,102 -499,102l0 863 -113 0 0 -3412 117 0c175,0 340,33 495,100 155,67 291,158 406,273 115,115 206,250 273,404 67,154 100,320 100,497zm-1278 1154c160,0 311,-30 452,-91 141,-61 263,-143 368,-248 104,-104 187,-227 248,-368 61,-141 91,-290 91,-448 0,-160 -30,-311 -91,-452 -61,-141 -143,-263 -248,-368 -104,-104 -226,-187 -366,-248 -140,-61 -290,-91 -450,-91l-4 2313z"/>
  <path id="7" fill="black" fill-rule="nonzero" d="M19304 3274l-175 0 -517 -514c-141,63 -288,95 -441,95l0 419 -120 0 0 -2549 120 0 0 2010c134,0 259,-26 377,-76 118,-51 220,-120 308,-208 87,-87 157,-190 208,-308 51,-118 76,-243 76,-377l0 -1042 117 0 0 1042c0,194 -47,374 -142,539 -95,165 -226,297 -393,397l583 572z"/>
  <polygon id="8" fill="black" fill-rule="nonzero" points="19632,725 19632,2881 20612,725 20659,725 20659,3274 20550,3274 20550,1126 19563,3274 19563,3274 19519,3274 19519,725 "/>
  <polygon id="9" fill="black" fill-rule="nonzero" points="21868,3274 21868,1483 21074,1483 21074,3274 20958,3274 20958,725 21074,725 21074,1366 21868,1366 21868,725 21985,725 21985,3274 "/>
  <polygon id="10" fill="black" fill-rule="nonzero" points="23172,842 22356,842 22356,3274 22240,3274 22240,725 23172,725 "/>
  <polygon id="11" fill="none" fill-rule="nonzero" stroke="black" stroke-width="74" stroke-miterlimit="22.9256" points="6125,1071 5342,3274 5214,3274 6125,722 7039,3274 6911,3274 "/>
  <path id="12" fill="none" fill-rule="nonzero" stroke="black" stroke-width="74" stroke-miterlimit="22.9256" d="M8404 725l0 2549 -117 0 0 -1144 -845 0 0 1144 -117 0 0 -1595c0,-134 24,-258 73,-373 49,-115 116,-216 202,-302 86,-86 188,-154 304,-204 117,-50 244,-75 382,-75l117 0zm-961 1289l845 0 0 -1180c-114,0 -222,23 -324,69 -102,46 -192,107 -270,184 -78,77 -139,166 -184,270 -45,103 -67,211 -67,322l0 335z"/>
  <path id="13" fill="none" fill-rule="nonzero" stroke="black" stroke-width="74" stroke-miterlimit="22.9256" d="M9938 3274l-175 0 -517 -514c-141,63 -288,95 -441,95l0 419 -120 0 0 -2549 120 0 0 2010c134,0 259,-26 377,-76 118,-51 220,-120 308,-208 87,-87 157,-190 208,-308 51,-118 77,-243 77,-377l0 -1042 117 0 0 1042c0,194 -47,374 -142,539 -95,165 -226,297 -393,397l583 572z"/>
  <path id="14" fill="none" fill-rule="nonzero" stroke="black" stroke-width="74" stroke-miterlimit="22.9256" d="M10152 1836c0,-153 29,-297 87,-432 58,-135 138,-253 240,-353 102,-101 220,-180 355,-239 135,-58 279,-87 432,-87 153,0 297,29 432,87 135,58 253,138 353,239 101,101 180,219 239,353 58,135 87,279 87,432 0,153 -29,297 -87,432 -58,135 -138,252 -239,351 -101,100 -219,179 -353,237 -135,58 -279,87 -432,87 -153,0 -297,-29 -432,-86 -135,-57 -253,-136 -355,-237 -102,-101 -182,-219 -240,-353 -58,-135 -87,-279 -87,-432zm117 0c0,136 26,265 78,386 52,121 124,227 215,317 91,90 197,161 319,213 121,52 250,78 386,78 136,0 264,-26 384,-78 120,-52 225,-124 315,-215 90,-91 161,-197 213,-317 52,-120 78,-248 78,-384 0,-136 -26,-264 -78,-384 -52,-120 -123,-226 -213,-317 -90,-91 -195,-163 -315,-215 -120,-52 -248,-78 -384,-78 -136,0 -265,26 -386,78 -121,52 -228,123 -319,213 -91,90 -163,196 -215,317 -52,121 -78,250 -78,386zm33 1326l1923 0 0 113 -1923 0 0 -113z"/>
  <polygon id="15" fill="none" fill-rule="nonzero" stroke="black" stroke-width="74" stroke-miterlimit="22.9256" points="14643,3274 14643,842 13849,842 13849,3274 13729,3274 13729,725 14759,725 14759,3274 "/>
  <path id="16" fill="none" fill-rule="nonzero" stroke="black" stroke-width="74" stroke-miterlimit="22.9256" d="M16107 725l0 2549 -117 0 0 -1144 -845 0 0 1144 -117 0 0 -1595c0,-134 24,-258 73,-373 49,-115 116,-216 202,-302 86,-86 188,-154 304,-204 117,-50 244,-75 382,-75l117 0zm-961 1289l845 0 0 -1180c-114,0 -222,23 -324,69 -102,46 -192,107 -270,184 -78,77 -139,166 -184,270 -45,103 -67,211 -67,322l0 335z"/>
  <path id="17" fill="none" fill-rule="nonzero" stroke="black" stroke-width="74" stroke-miterlimit="22.9256" d="M17778 2000c0,175 -33,340 -100,495 -67,155 -158,290 -273,404 -115,114 -251,205 -406,273 -155,68 -322,102 -499,102l0 863 -113 0 0 -3412 117 0c175,0 340,33 495,100 155,67 291,158 406,273 115,115 206,250 273,404 67,154 100,320 100,497zm-1278 1154c160,0 311,-30 452,-91 141,-61 263,-143 368,-248 104,-104 187,-227 248,-368 61,-141 91,-290 91,-448 0,-160 -30,-311 -91,-452 -61,-141 -143,-263 -248,-368 -104,-104 -226,-187 -366,-248 -140,-61 -290,-91 -450,-91l-4 2313z"/>
  <path id="18" fill="none" fill-rule="nonzero" stroke="black" stroke-width="74" stroke-miterlimit="22.9256" d="M19304 3274l-175 0 -517 -514c-141,63 -288,95 -441,95l0 419 -120 0 0 -2549 120 0 0 2010c134,0 259,-26 377,-76 118,-51 220,-120 308,-208 87,-87 157,-190 208,-308 51,-118 76,-243 76,-377l0 -1042 117 0 0 1042c0,194 -47,374 -142,539 -95,165 -226,297 -393,397l583 572z"/>
  <polygon id="19" fill="none" fill-rule="nonzero" stroke="black" stroke-width="74" stroke-miterlimit="22.9256" points="19632,725 19632,2881 20612,725 20659,725 20659,3274 20550,3274 20550,1126 19563,3274 19563,3274 19519,3274 19519,725 "/>
  <polygon id="20" fill="none" fill-rule="nonzero" stroke="black" stroke-width="74" stroke-miterlimit="22.9256" points="21868,3274 21868,1483 21074,1483 21074,3274 20958,3274 20958,725 21074,725 21074,1366 21868,1366 21868,725 21985,725 21985,3274 "/>
  <polygon id="21" fill="none" fill-rule="nonzero" stroke="black" stroke-width="74" stroke-miterlimit="22.9256" points="23172,842 22356,842 22356,3274 22240,3274 22240,725 23172,725 "/>
  <circle fill="none" stroke="#99FFFF" stroke-width="295" stroke-miterlimit="22.9256" cx="2546" cy="1808" r="1660"/>
  <path fill="aqua" fill-rule="nonzero" d="M2044 3197l-72 16 -12 -9 -1 -14 -9 15 -24 2 -15 -13 -80 41 -23 -19 -36 24 -10 1c-16,1 -25,-10 -27,-33l-47 18 -60 -9 -31 51 -10 1c-16,1 -25,-10 -27,-32l-36 23 -48 -31 -37 17 -12 -13 -2 -24 22 -26 -15 -9 -1 -10c-6,-78 11,-131 50,-160 -2,-32 3,-49 17,-50l15 13 10 -1 13 -15 -1 -10 -41 -32 34 -51 -26 -22 32 -37 -11 -10 -6 -83 34 -3 -26 -22 -10 1 2 24 -24 2 -26 -22 5 -73c-40,-6 -61,-16 -61,-30l-1 -10 34 -52c-3,-41 -27,-79 -72,-112 -1,-16 14,-26 47,-28l-39 -56 -13 11 -21 2 -26 -22 22 -26 36 22 -2 -24 -39 -42 -1 -14 32 -48 -38 -36 -38 17 -12 -13 -1 -10 10 -12 14 -1 12 9 14 -1 -2 -24c-33,-2 -50,-12 -52,-30l31 -51 -2 -24c-39,3 -60,-3 -61,-19l-1 -10c-1,-16 17,-26 56,-29 -1,-16 -17,-23 -47,-21l-7 -93c-24,2 -38,-14 -40,-46l-43 27 -49 -7 -14 1 1 10 99 17c-30,30 -44,59 -42,86l13 -1c23,-1 34,-14 32,-37l9 -14 14 -1 12 13 1 10 -9 14 11 10 1 10c-9,33 -19,50 -30,51l-14 1 -37 -22 2 24 -10 1 15 58 3 34 -21 40 27 33 -79 183 26 22c-21,1 -30,42 -29,120l-12 109 -48 4 2 24 35 -3 4 59 -18 84 15 10c-25,2 -34,54 -26,158 2,25 47,81 134,167l2 24 -14 1 33 116 -32 27 -98 -3c-9,31 -19,47 -31,48 -16,-22 -92,-36 -230,-41 2,32 -4,49 -21,50 -16,1 -25,-10 -27,-33l-59 5 -48 -34 -22 26 -15 -9 -1 -14 13 -12 10 -1 -15 -58c16,-119 47,-180 93,-184 16,-4 36,-46 60,-126l-4 -45c-32,2 -49,-4 -50,-20l-1 -14 23 -23 40 18 10 -1 -2 -34c-32,2 -49,-4 -50,-21 -1,-16 11,-25 36,-27l35 11c3,-49 25,-75 64,-78l-1 -10c-39,3 -60,-3 -61,-19l35 -38 -1 -13c-1,-14 -14,-20 -39,-18l-12 -13 -2 -24c-1,-16 10,-25 33,-27l-1 -10 -27 -33 21 -50 -13 -33 22 -26 -1 -10 -24 2 3 35 -38 3 -6 -73 35 -38 60 6 -1 -21c-39,3 -60,-3 -61,-19l-1 -14c-1,-14 10,-22 33,-23l36 7 16 -109 -9 15 -14 1 -38 -46 -1 -14 48 -14 37 32 -4 -59c-32,3 -49,-4 -50,-21l22 -23 60 6 -3 -35 -10 11 -14 1 -49 -45 10 -11 35 -3 40 21 -3 -34c-32,3 -49,-4 -50,-21l-1 -14 22 -26 10 -1 15 13 10 -1 9 -15 -1 -10 -46 -7 -3 -38 38 -97 -14 -33 -9 11 -14 1 -52 -45 61 -26 -1 -14c-25,2 -39,-5 -40,-21 7,-31 22,-46 45,-48l-12 -13 -2 -24 19 -22 14 -1 36 18 47 -156 -24 2c2,23 -5,35 -18,36l-14 1 -26 -22 -1 -10 35 -37 -16 -37 33 -24 39 18 10 -12 -2 -24c-39,3 -60,-3 -61,-19l-1 -10 40 -110 -16 -34 -10 12 -14 1 -37 -32 22 -26 10 -1c16,-1 25,10 27,33l14 -1 32 -37c-49,-6 -74,-15 -75,-29l-1 -14 23 -23 36 18 22 -23 -13 -38 23 -23 -2 -24c-39,3 -59,-3 -61,-19l-2 -24 19 -26 14 -1c16,-1 25,10 27,33l44 -14 -15 -58 -33 27 -41 -35 23 -23 24 -2 37 18 -3 -34c-39,3 -59,-4 -60,-20l-1 -10 22 -26 24 -2c16,-1 25,10 27,33l34 -13 -27 -33 38 -110c-2,-23 -14,-33 -37,-32l-15 -13 -2 -34 22 -26 51 20c23,-2 33,-22 30,-61l24 -2 4 49 49 -4c39,-4 64,6 72,29l2 35 -24 2 1 10c25,-2 43,18 53,59 2,23 -13,36 -46,38l2 24c28,-2 54,31 80,98l-10 49 27 33 -21 40c28,41 50,111 64,206l-9 15 21 -2 5 59 27 32 2 24 -6 60 26 22 6 69 16 72 -9 11c14,87 38,141 71,161l-13 15c44,27 67,64 72,113l-13 11 1 14 17 44 1 14 -13 12 1 14 26 19c1,16 -14,25 -47,28l1 13c32,-3 49,4 50,21l-48 14c35,37 54,67 56,90l-10 1 12 13 2 24 -10 12 11 9 4 49 -9 14 1 10c20,-1 41,72 62,221l14 -1 32 -27 10 -1 19 58 1 14 -13 11 15 13 1 10 -13 12 1 14 33 105 1 21 -9 15 11 10 1 14 -22 37 15 9 1 14 -10 46c34,14 52,37 54,69l-22 26 15 9 -13 15 -10 1c-3,-25 -23,-40 -63,-44l1 10c58,30 87,52 89,66l-13 11 -10 1 -14 -10 2 24c37,-3 76,37 117,120 55,24 103,67 142,131 6,81 -17,138 -70,172l-26 -19zm-907 92l-13 15 -10 1 -15 -13 -1 -10 13 -11 10 -1 15 10 1 10zm-249 19l-13 15 -10 1 -15 -13 -1 -10 13 -12 10 -1 15 9 1 10zm-114 -85l-13 12 -10 1 -52 -41 13 -15 -3 -35 -14 1 -6 60c2,25 39,42 112,50l-27 -33zm1308 -150l-2 -24 -14 1 2 24 14 -1zm-675 52l-38 3 -2 -24 38 -3 2 24zm-795 28l-10 11 -24 2 -3 -35 14 -1 23 23zm826 -113l-13 15 -21 2 -3 -35 10 -1 26 18zm-806 53l-10 1 -26 -22 10 -11 14 -1 11 10 2 24zm1279 -217l-1 -14 -26 -22 1 14 26 22zm-1191 92l-14 1 -12 -13 -1 -10 9 -15 14 -1 12 13 1 10 -9 15zm962 -147l-3 -35 -22 26 2 35 23 -26zm156 2l-2 -24 -14 1 2 24 14 -1zm19 -26l-4 -48 -21 1 -22 26 47 21zm-1108 86l-13 11 -10 1 -11 -10 -1 -14 9 -11 10 -1 15 9 1 14zm892 -142l-27 -43 -10 11 -14 1 17 33 34 -2zm-140 25l-24 2 -3 -38 10 -1 26 22 -9 15zm-58 -104l-34 3 -2 -24 34 -3 2 24zm-399 17l-2 -21 -35 3 23 19 14 -1zm-121 -36l-24 2 2 24 22 -26zm-130 34l-10 1 -15 -13 -1 -10 13 -15 10 -1 12 13 1 10 -9 15zm171 -86l-1 -10 -37 -35 -10 15 1 10 23 22 24 -2zm-129 -1l-24 2 -26 -22 10 -15 14 -1 26 22 1 13zm835 -103l-1 -10 -24 2 1 10 24 -2zm-274 11l-14 1 -23 -22 18 -26 14 -1 26 22 -22 26zm282 -46l-3 -35 -35 2 13 34 24 -2zm-142 1l-1 -14 -26 -22 1 14 26 22zm-758 34l-10 12 -14 1 -11 -9 -1 -14 10 -11 14 -1 11 10 1 13zm1027 -104l-1 -10 -38 3 1 10 38 -3zm-333 2l-1 -10 -35 2 1 10 35 -2zm-116 23l-14 1 -26 -22 13 -15 10 -1 26 22 -9 15zm-572 20l-10 1 -26 -22 13 -12 21 -2 2 35zm1014 -127l19 -26 -11 -10 -10 1 -13 12 2 24 14 -1zm-74 -19l-2 -24 -10 1 2 24 10 -1zm-1160 56l-14 1 -2 -24 14 -1 2 24zm954 -123l-2 -24 -33 17 3 35 10 -1 22 -26zm-316 63l-24 2 -2 -24 22 -26 23 22 -19 26zm114 -47l-13 15 -10 1 -9 -13 -4 -24 13 -1 24 23zm317 -49l-1 -10 -24 2 1 10 24 -2zm-1209 49l-26 -22 22 -26 26 22 -22 26zm421 -91l-10 1 -26 -22 32 -37 39 7 1 10 -35 41zm-745 33l-24 2 -2 -24 24 -2 2 24zm1178 -106l-10 1 -26 -19 9 -15 14 -1 12 13 1 21zm-733 37l-13 1 -3 -24 14 -1 2 24zm221 -66l-14 1 -23 -23 19 -26 14 -1 26 22 -23 26zm-261 -15l-22 23 -14 1 -37 -32 -1 -10 22 -26 10 -1 41 32 1 14zm126 -34l-24 2 -1 -14 24 -2 1 14zm81 -32l-10 12 -14 1 -11 -9 -1 -10 9 -15 14 -1 11 13 1 10zm930 -96l-1 -10 -20 2 1 10 21 -2zm-35 -7l-1 -13 -48 4 1 14 49 -4zm-617 10l-1 -10 -24 2 1 10 24 -2zm-226 -3l-23 23 -11 -10 -1 -10 10 -14 24 -2 1 14zm789 -86l-2 -24 -21 2 23 22zm-493 39l-2 -24 -14 1 2 24 14 -1zm-630 49l-35 3 22 -26 12 10 1 14zm789 -121l5 -60 -46 4 28 57 13 -1zm-471 47l-24 2 -2 -24 22 -26 24 -2 3 24 -22 26zm599 -70l-1 -10 -24 2 -1 -14 -33 16 1 10 59 -4zm-483 37l-10 1 -16 -33 13 -12 10 -1 26 18 -22 26zm138 -36l-2 -21 -10 1 2 21 10 -1zm638 -70l-2 -24 -14 1 2 24 14 -1zm-1016 66l-14 1 -2 -24 14 -1 2 24zm257 -45l-14 1 -23 -22 32 -37 26 22 1 10 -22 26zm-191 4l-26 -22 -1 -10 22 -26 26 22 1 10 -22 26zm500 -136l-2 -21 -10 1 2 21 10 -1zm-228 -41l-24 2 1 24 24 -26zm-199 40l-26 -22 24 -2 2 24zm58 -15l-24 2 -1 -14 24 -2 1 14zm154 -36l-3 -24 10 -11 -12 -13 -37 16 41 32zm345 -101l-2 -20 -10 1 2 21 10 -1zm179 -34l-15 -13 -1 -10 -10 11 -14 1 -11 -9 -10 1 2 24 59 -5zm-547 28l-38 -32 33 -27 26 22 1 10 -22 26zm233 -100l-1 -10 -24 2 3 35 22 -26zm-329 60l-15 -9 -2 -35 22 -26 26 22 1 10 -32 37zm-274 20l-10 1 -52 -41 -2 -24 22 -26 34 -3 38 32 2 24 -32 37zm300 -127l-2 -24 24 -2 -22 26zm-432 -40c-55,4 -85,-21 -89,-76 11,-41 34,-62 68,-64 42,39 64,72 67,103l-46 38zm-344 3l-15 -9 -2 -24 38 -3 1 10 -22 26zm2136 -176l-49 4 -1 -14 23 -23 26 19 1 14zm-1420 95l-20 2 -1 -10 21 -2 1 10zm876 -88l-24 2 -1 -14 24 -2 1 14zm-1537 105l-15 -9 -1 -14 38 -3 -22 26zm-142 10l-26 -22 22 -23 26 18 -22 26zm789 -85l-24 2 -25 -19 22 -26 26 22 2 21zm165 -23l-35 2 -2 -24 35 -3 2 24zm481 -85l-1 -10 -24 3 1 10 24 -2zm-731 70l-24 2c-16,1 -30,-22 -40,-70l10 -1 48 -14 37 32 1 10 -32 41zm-631 -11l-22 23 -26 -18 -2 -24 24 -2 26 22zm708 -55l-24 2 -3 -38 24 -2 3 38zm-667 4l-10 1 -26 -22 32 -37 26 22 1 10 -22 26zm1300 -135l-1 -13 -24 2 1 14 24 -2zm-417 7l-10 1 -26 -22 -1 -10 22 -26 37 32 -22 26zm386 -88l-2 -24 -22 26 24 -2zm-77 -53l-2 -24 -21 1 23 23zm-352 27l-24 2 -1 -14 24 -2 1 14zm194 -63l-2 -24 -10 1 2 24 10 -1zm185 -108l-24 2 2 21 23 -23zm-52 -34l-4 -59 -10 1 -21 50 1 10 34 -2zm-59 -6l-1 -14 -35 3 2 24 34 -13zm-154 35l-10 1 -26 -22 -1 -14 22 -23 37 32 -22 26zm160 -85l-2 -24 -24 2 2 24 24 -2zm-34 -6l-1 -14 -24 2 1 14 24 -2zm81 -22l-2 -24 -24 2 2 24 24 -2zm-119 1l-2 -24 -14 1 2 24 14 -1zm-56 15l-38 3 -1 -10 22 -26 14 9 2 24zm-75 -6l-24 2 -2 -35 24 -2 3 35zm17 -95l-10 12 -13 1 -12 -9 -1 -14 9 -11 14 -1 11 9 1 14zm92 -20l-10 1 -26 -22 -1 -10 22 -26 10 -1 26 22 1 10 -22 26z"/>
  <path id="1" fill="aqua" fill-rule="nonzero" d="M4102 2978l-46 35 -31 13 13 27 -10 11 -17 1 -22 -19 25 -40 -67 -16 1 21c18,-1 28,5 30,19l-26 30 -10 1c-13,1 -22,-11 -23,-36l-36 31 -41 -35 -29 23 12 27 -10 12 -27 2 -23 -19 18 -30 -1 -10 -99 -20 1 7c-7,33 -15,50 -24,50l-10 1c-14,1 -22,-14 -24,-47l-36 34c-65,0 -98,-4 -98,-13l-25 -57 -7 -86 11 9 21 -1 -1 -10 -21 1 -2 -21 35 -41 39 7 -10 -38 34 -51 -13 -31c1,-49 11,-86 30,-110l0 -7 -7 1 -30 19 -28 -84 10 -12 10 -1 32 8 27 -13 -2 -27 -48 14 -23 -29 19 -19 -1 -21 -21 2 -3 -28 -28 2 -2 -31 17 -2 -1 -10 -10 -37c10,-17 14,-49 10,-98l10 -1 -12 -9 -1 -10 14 -98c-21,1 -32,-3 -32,-15l26 -61 -24 -36c-2,-35 9,-65 35,-93l-1 -7c-21,2 -42,-11 -62,-37 17,-20 27,-57 30,-110l-14 -37c-1,-12 9,-18 30,-20l6 -11 -1 -10c-45,-13 -68,-23 -68,-33l-1 -10 25 -40 -1 -10 -23 -29 29 -30 -12 -10 -3 -38 34 -51 -7 1 -30 13 -1 -10 -23 -26c12,-1 21,-17 28,-50l-23 -20c14,-1 22,-34 24,-99l17 -1 -31 -36 -2 -31c-1,-16 11,-27 36,-31l-1 -21 -10 1 -48 15 -11 -10 -1 -10c20,-16 30,-58 32,-128l-13 -37 7 -49 -23 -19 10 -12 -1 -10 12 10 28 -3 -1 -10 -42 -52 10 -12c-4,-46 -19,-68 -47,-66l-1 -21 21 -2 -2 -27 -22 -20c-1,-9 -1,-19 1,-28l-35 3c-1,-11 12,-18 37,-20l3 -4 -1 -17c-1,-9 -13,-15 -36,-18l-3 0c-16,-1 -37,-2 -63,-2l-1 -10 -6 11 -49 -7 -21 2 -36 31 -10 1 -22 -16c-55,4 -106,24 -152,60l-7 1 19 26 -55 8c1,5 -1,9 -2,14l23 29 6 69c19,-1 28,4 29,15l1 10 -33 62c14,-1 23,31 28,95l6 -11 10 -1 12 9 1 10 -27 9 2 20 19 26 -15 32 11 48 -9 98 26 -23 11 10 1 10c-24,11 -36,22 -36,31l1 10c19,-2 28,5 30,18l-25 40 21 47 -36 24c16,121 34,181 52,180l-20 99c32,-2 49,3 50,17l-10 12 -10 1 -8 -10 -10 11 31 47 -15 29 10 37c-7,26 -15,39 -25,40l-49 -3 1 17c39,-3 60,6 61,26l-20 19 14 47 1 10 -10 11 36 57 -15 77 13 31 -10 8 11 10 -19 22c32,2 49,10 50,24l-25 33 14 48 -30 13 1 7 23 29 6 86c18,-1 28,5 30,19l-25 30 1 10 19 27 -26 23 13 27 -12 119 22 19 9 107 119 143 6 -8 11 6 1 10 -10 11 1 10 22 16 1 10 -10 1 -11 -10 -7 1 -28 44 31 -3 1 17 -46 35 -30 12 12 27 -9 11 -17 1 -23 -19 25 -40 -67 -16 2 21c19,-1 28,5 29,19l-25 30 -10 1c-14,1 -22,-11 -24,-36l-36 31 -41 -35 -29 23 13 27 -10 11 -28 3 -23 -19 19 -30 -1 -10 -99 -20 0 7c-6,33 -14,50 -23,50l-10 1c-14,1 -22,-14 -25,-47l-36 34c-65,0 -98,-4 -98,-13l-26 -57 -7 -86 12 9 20 -1 -1 -10 -21 1 -1 -21 35 -41 39 7 -10 -38 35 -52 -13 -30c1,-49 11,-86 30,-110l-1 -7 -7 1 -30 19 -27 -84 9 -12 10 -1 32 8 27 -13 -2 -27 -47 14 -23 -30 20 -19 -2 -21 -21 2 -2 -28 -28 2 -3 -31 17 -1 -1 -10 -9 -38c10,-17 13,-50 9,-98l10 -1 -11 -9 -1 -10 13 -98c-21,1 -31,-3 -32,-15l27 -61 -24 -36c-3,-35 9,-65 34,-93l-1 -7c-21,2 -41,-11 -62,-37 17,-20 27,-57 30,-110l-13 -38c-1,-12 9,-18 29,-20l6 -11 -1 -10c-45,-13 -68,-23 -69,-33l-1 -10 25 -40 -1 -10 -23 -29 29 -30 -11 -10 -3 -38 34 -51 -7 1 -31 13 -1 -10 -23 -27c12,-1 21,-17 28,-50l-22 -20c14,-1 21,-34 23,-99l17 -1 -31 -36 -2 -31c-2,-16 10,-27 36,-31l-2 -21 -10 1 -47 15 -12 -10 -1 -10c20,-16 30,-58 32,-128l-13 -37 7 -49 -22 -19 9 -12 -1 -10 11 10 28 -2 -1 -10 -42 -52 9 -12c-3,-46 -19,-68 -46,-66l-2 -21 21 -2 -2 -27 -23 -20c0,-32 6,-58 18,-78l-4 0 -17 1 -22 -16 1 7 -10 1 -1 -17 10 -1 16 -19 -1 -14 14 -1 -1 -14 -31 6 -11 -6 -1 -10 9 -12 -1 -10 -11 -9 -10 1 -27 23 -11 -10 -1 -10c14,-1 22,-18 24,-50l-7 1 -32 -8 10 -8 -1 -10 -25 -57 19 -22 -14 -38 70 5 10 -1 34 -13 -8 -6 -1 -10 114 1 14 -5 17 -1 11 6 66 1 4 -4 7 -1 4 4 49 0 16 -19 80 -6 29 19 19 -23 76 -6 30 29 1 10 14 -1 16 -22 49 7 87 -7 30 -20 25 15 -5 -21 49 3 6 -4 11 6 14 -1 20 -5c4,-10 12,-15 24,-16l-1 -7 104 -2 6 -4 17 -2 4 4 142 -1 10 -15 79 -7 26 19 4 0 19 -23 10 -1 -4 -6 -1 -10 27 -2 -16 19 58 -4 30 29 9 114 34 39 -29 30 -19 -20c-44,36 -63,81 -59,133 -9,1 -19,12 -29,34l11 10 -14 1c-3,12 -7,24 -11,35l23 29 6 69c19,-1 28,4 29,16l1 10 -34 62c14,-1 23,31 28,95l6 -11 10 -1 11 9 1 10 -27 9 1 21 20 26 -15 32 11 48 -10 98 26 -23 12 10 1 10c-25,11 -36,22 -36,31l1 10c19,-2 28,5 29,18l-25 40 22 47 -37 24c17,121 34,181 52,180l-20 99c32,-2 49,3 50,17l-9 11 -10 1 -8 -10 -9 11 31 47 -16 29 10 38c-7,26 -15,39 -25,40l-49 -3 1 17c39,-3 60,6 61,26l-19 19 14 47 1 10 -10 12 36 56 -15 77 12 31 -10 8 12 10 -20 22c33,2 50,10 51,24l-25 33 14 48 -31 13 1 7 23 29 7 87c19,-2 28,5 30,18l-26 30 1 10 20 26 -26 23 12 27 -12 119 23 19 8 107 119 143 6 -8 11 6 1 10 -9 11 1 10 22 16 1 10 -10 1 -11 -10 -7 1 -27 44 31 -2 1 17zm-461 -1017l9 -11 -1 -7c-25,-3 -39,-12 -40,-28l-10 1 -53 74 11 9 1 7c-9,33 -24,50 -45,52l1 10 27 -2c16,-34 34,-51 55,-53l-13 -37 19 -30 39 14zm-856 67l10 -11 -1 -7c-26,-3 -39,-12 -41,-28l-10 1 -53 74 12 9 0 7c-9,33 -24,50 -44,52l1 10 28 -2c16,-34 34,-51 55,-53l-14 -37 18 -30 39 14zm918 457c-16,-24 -36,-36 -61,-33l11 6 -7 49 1 10 10 -1 46 -31zm-856 67c-16,-24 -37,-36 -62,-33l11 6 -7 49 1 10 10 -1 46 -31zm1052 -2061l-10 1 -22 -19 -1 -7 19 -22 10 -1 19 20 0 7 -16 22zm-271 1914l-2 -21 -19 -19 -30 13 2 20 49 7zm-857 67l-2 -21 -19 -19 -31 12 2 21 49 7zm89 -514l-1 -10 -49 -7 -2 -21 28 -2 -30 -25 -7 49 2 21 10 -1 6 -11 10 -1 11 9 21 -2zm856 -66l-1 -10 -50 -7 -1 -21 28 -2 -30 -26 -7 49 2 21 10 -1 6 -11 10 -1 11 9 21 -1zm-122 1197l-29 30 -19 -16 -1 -10 16 -22 10 -1 22 20zm-856 67l-29 30 -19 -16 -1 -10 16 -22 10 -1 23 20zm1010 -100l-29 23 -19 -20 -1 -7 16 -22 34 25zm-856 67l-29 23 -19 -20 -1 -7 15 -22 33 25zm-43 -1313l-12 -27 -31 2 2 21c14,-1 21,7 23,26l19 -23zm857 -67l-12 -27 -31 3 1 21c14,-1 21,8 23,26l19 -23zm-982 -389c14,-1 22,-22 26,-61l-21 1 -6 49 1 10zm856 -67c14,-1 23,-21 26,-61l-21 1 -7 49 1 10zm-27 1131l-1 -7 -13 -31 10 -11 -10 1c-14,1 -20,16 -18,43l10 -1 11 6 10 -1zm-856 67l-1 -7 -12 -31 9 -11 -10 1c-14,1 -20,16 -17,43l10 -1 11 6 10 -1zm810 590l-19 22 -23 -19 20 -19 21 -2 1 17zm-857 67l-19 22 -22 -19 19 -19 21 -1 1 17zm109 -1860l15 -29 -11 -9 -7 0 -30 13 33 25zm856 -67l15 -29 -11 -9 -7 0 -31 13 34 25zm18 1267l-1 -10 -30 -25 -10 1 11 10 1 6 -10 12 1 10 38 -3zm-856 67l-1 -10 -30 -26 -10 1 11 9 1 7 -9 12 1 10 38 -3zm-40 111l-1 -10 -30 -25 -10 1 3 38 10 -11 10 -1 8 10 10 -1zm856 -67l-1 -10 -30 -25 -10 1 3 38 10 -11 10 -1 8 10 10 -1zm-891 -778c-2,-28 6,-42 25,-43l-1 -7 -21 1 -25 41 1 10 21 -1zm856 -67c-2,-28 6,-42 24,-43l0 -7 -21 1 -25 41 1 10 21 -1zm-1018 -1352c2,-7 2,-15 2,-24l-23 -16 -10 1 1 10 21 -2 1 7c1,9 -2,15 -9,18l0 3 -21 2 1 10 10 -1 27 -9zm442 907l-1 -10 -38 -4 2 28 10 -1 27 -12zm856 -67l-1 -10 -39 -4 2 28 10 -1 27 -13zm-1034 636l-1 -17 -23 -19 -10 1 12 10 1 10 -10 8 1 10 31 -3zm857 -67l-1 -17 -23 -19 -10 1 11 10 1 10 -10 8 1 10 31 -2zm-840 -216l10 -11 -2 -21 -41 3 33 29zm857 -67l10 -11 -2 -21 -42 3 34 29zm-920 1252l19 -22 -1 -10 -21 2 -10 11 2 21 10 -1zm856 -66l19 -23 -1 -10 -21 2 -9 11 1 21 10 -1zm-695 -1478l-4 -49 -16 19 2 31 17 -1zm856 -67l-4 -49 -16 19 2 31 17 -1zm-1380 -691l-10 1 -12 -9 -1 -10 10 -12 10 -1 8 10 1 10 -6 11zm743 2193l-9 11 -7 1 -11 -10 -1 -10 10 -11 7 -1 11 10 1 10zm857 -67l-10 11 -7 1 -11 -10 -1 -10 9 -11 7 -1 12 10 1 10zm-1151 -953l-1 -10 -49 -6 -6 10 1 10 7 0 10 -12 10 -1 11 9 17 -1zm933 -725l-2 -31 -21 1 3 31 21 -1zm-856 66l-2 -31 -21 1 2 31 21 -2zm779 592l-1 -10 -49 -6 -6 11 1 10 7 0 9 -12 10 -1 11 10 17 -2zm-448 -979l-10 11 -10 1 -8 -10 -1 -10 6 -8 10 -1 11 6 1 10zm-164 -231l-2 -21 -41 4 1 14 14 -5 7 -1 11 10 10 -1zm750 2457l-1 -10 -23 -20 -10 1 1 10 22 19 10 -1zm-856 67l-1 -10 -22 -20 -10 1 1 10 23 19 10 -1zm-495 -2469l-1 -17 -31 2 1 17 31 -2zm376 1346l-2 -28 -17 2 3 28 17 -2zm856 -67l-2 -27 -17 1 2 28 17 -2zm-831 885l-1 -21 -21 2 1 21 21 -2zm-34 -1470l-1 -10 -41 3 1 10 42 -4zm98 1535l-2 -21 -21 2 2 21 21 -2zm792 -131l-2 -21 -21 2 2 21 21 -2zm64 64l-1 -21 -21 2 2 21 20 -2zm-1019 -778l-23 -19 -10 1 2 21 31 -3zm921 -756l-1 -10 -42 3 1 10 41 -3zm-65 689l-22 -19 -10 1 2 21 31 -2zm-890 878l16 -22 -28 2 2 21 10 -1zm856 -67l16 -22 -28 2 1 21 10 -1zm-81 336l-1 -10 -22 -16 2 28 21 -2zm-856 67l-1 -10 -22 -16 2 28 21 -2zm196 -1235l-1 -10 -38 3 1 10 38 -3zm23 155l-1 -10 -38 3 1 10 38 -3zm834 -221l-1 -10 -38 3 1 10 38 -3zm23 155l-1 -10 -38 3 1 10 38 -3zm-669 -1184l-19 22 -11 -10 -1 -10 31 -2zm651 1720l-1 -17 -21 2 2 17 20 -2zm-922 326l-1 -7 -23 -20 2 28 21 -1zm285 47l-2 -21 -17 1 2 21 17 -1zm571 -114l-1 -7 -22 -20 2 28 21 -1zm285 47l-1 -21 -17 1 1 21 17 -1zm-1266 -1187l-2 -21 -17 1 2 21 17 -1zm88 108l-1 -17 -21 2 1 17 21 -2zm148 27l-1 -17 -21 2 1 17 21 -2zm620 -201l-1 -21 -17 1 2 21 17 -1zm89 108l-2 -17 -21 2 2 17 21 -2zm148 27l-2 -17 -21 1 2 17 21 -2zm-901 880l-1 -17 -21 2 1 17 21 -1zm438 -1778l-22 -16 10 -12 10 -1 2 28zm-389 673l-2 -27 -16 19 1 10 17 -2zm856 -67l-2 -27 -16 19 1 10 17 -2zm-885 1309l-1 -10 -31 2 1 10 31 -2zm177 142l-3 -31 -10 1 2 31 10 -1zm856 -67l-3 -31 -10 1 2 31 10 -1zm-242 144l-1 -10 -31 2 1 10 31 -2zm-856 67l-1 -10 -31 3 1 10 31 -3zm1279 234l-10 8 -10 1 -2 -28 22 19zm-1322 103l-10 8 -10 1 -2 -28 22 19zm466 -36l-10 8 -10 1 -2 -28 23 19zm-274 -1510l-1 -10 -31 3 1 10 31 -2zm664 1480l-10 8 -10 1 -2 -28 23 19zm108 -623l-1 -10 -31 3 1 10 31 -3zm84 -923l-1 -10 -31 2 1 10 31 -2zm-1072 -208l16 -22 -11 -10 -7 1 3 31zm856 -67l16 -22 -12 -10 -7 1 2 31zm-524 1472l-2 -17 -17 2 1 17 17 -2zm-116 -234l-1 -17 -17 1 1 17 17 -1zm856 -67l-1 -17 -17 1 1 17 17 -1zm115 234l-1 -17 -17 2 1 17 17 -2zm-407 -590l-1 -10 -28 2 1 10 27 -3zm39 358l-1 -10 -28 2 1 10 28 -2zm-584 306l-2 -28 -10 1 2 28 10 -1zm814 -1991l-1 -10 -28 2 1 10 28 -2zm-856 67l-1 -10 -27 2 1 10 28 -3zm898 1858l-2 -28 -10 1 2 28 10 -1zm-1167 -531l-1 -10 -28 2 1 10 28 -2zm38 358l-1 -10 -28 3 1 10 27 -2zm1148 564l-6 8 -10 1 -2 -28 19 20zm-856 67l-6 8 -10 1 -2 -28 19 20zm-116 -1495l-3 -38 -7 1 3 38 7 -1zm856 -67l-3 -38 -7 1 3 38 7 -1zm-917 259l-1 -10 -29 30 10 -1 20 -19zm-89 104l16 -22 -1 -10 -25 34 10 -1zm945 -171l-1 -10 -29 30 10 -1 19 -19zm-89 104l16 -22 -1 -10 -25 34 10 -1zm-700 833l26 -30 -10 1 -16 19 1 10zm856 -67l25 -30 -10 1 -16 19 1 10zm-854 -1288l-1 -10 -21 2 1 10 21 -2zm740 325l-1 -21 -10 1 1 21 10 -1zm-1048 -523l-2 -21 -10 1 2 21 10 -1zm267 1820l-1 -10 -21 2 1 10 21 -2zm-231 18l-1 -10 -21 2 1 10 20 -2zm1297 104l-10 1 -2 -21 10 -1 2 20zm-1209 -1698l-2 -31 -7 1 3 31 7 -1zm322 1114l-1 -21 -10 1 1 20 10 -1zm685 -258l-2 -21 -10 1 2 21 10 -1zm95 111l-1 -21 -10 1 1 21 10 -1zm-185 258l-2 -21 -10 1 1 20 10 -1zm-150 303l-1 -10 -21 1 1 10 21 -2zm239 -56l-1 -10 -20 2 1 10 21 -2zm-825 -1047l-1 -10 -21 1 1 10 21 -1zm33 -833l-1 -10 -21 1 1 10 21 -1zm-64 1946l-1 -10 -21 2 1 10 21 -2zm796 -1340l-1 -10 -21 1 1 10 21 -1zm233 850l-2 -21 -10 1 2 20 10 -1zm-974 427l-2 -21 -10 1 2 21 10 -1zm795 35l-1 -10 -21 2 1 10 21 -2zm-179 73l-2 -21 -10 1 1 21 10 -1zm-98 -3l-21 2 -1 -10 21 -2 1 10zm347 -2055l-1 -10 -21 1 1 10 21 -1zm31 671l-1 -10 -21 2 1 10 20 -2zm-1174 -142l-2 -21 -10 1 2 21 10 -1zm38 1595l-2 -21 -10 1 2 21 10 -1zm-98 -3l-21 2 -1 -10 21 -2 1 10zm672 17l-10 1 -1 -20 10 -1 2 21zm-311 -1632l-1 -10 -21 2 1 10 20 -2zm1168 1566l-10 1 -2 -21 10 -1 2 21zm-1043 168l-10 1 -2 -21 10 -1 2 21zm569 -1527l-1 -7 -31 3 1 7 31 -3zm-859 1053l-2 -21 -10 1 2 21 10 -1zm722 -1303l-2 -21 -10 1 2 21 10 -1zm-537 1046l-2 -21 -10 1 2 21 10 -1zm-317 -1437l-2 -21 -10 1 2 21 10 -1zm996 1326l-1 -10 -20 1 1 10 21 -1zm43 66l-1 -10 -21 1 1 10 21 -2zm-818 -65l-1 -21 -10 1 1 21 10 -1zm57 -1408l-2 -21 -10 1 2 20 10 -1zm816 -317l-1 -10 -21 2 1 10 21 -2zm183 -278l-10 1 -1 -21 10 -1 2 21zm-1118 1344l-1 -10 -21 1 1 10 20 -1zm156 -2l-1 -10 -21 2 1 10 21 -2zm610 -329l-2 -31 -7 1 2 31 7 -1zm-860 369l-2 -21 -10 1 2 21 10 -1zm873 -1093l-1 -10 -21 2 1 10 21 -2zm170 1147l-1 -10 -21 2 1 10 21 -1zm-974 -53l-1 -7 -31 3 1 7 31 -2zm4 42l-2 -21 -10 1 2 21 10 -1zm768 -928l-1 -10 -21 2 1 10 21 -2zm-124 20l-21 1 -1 -10 21 -1 1 10zm347 1970l-2 -21 -10 1 1 21 10 -1zm4 -1959l-1 -21 -10 1 2 21 10 -1zm-279 81l-1 -21 -10 1 2 21 10 -1zm66 92l-1 -10 -21 2 1 10 20 -1zm-119 68l-2 -20 -10 1 2 21 10 -1zm-749 819l-23 -19 2 21 21 -2zm1056 -621l-1 -10 -21 2 1 10 21 -2zm-1059 -404l-1 -10 -21 2 1 10 21 -2zm1104 480l-1 -10 -21 2 1 10 21 -2zm-803 753l-1 -10 -21 1 1 10 21 -2zm888 -1795l-1 -10 -21 2 1 10 21 -2zm-32 1729l-1 -10 -21 1 1 10 21 -1zm-1281 -1147l-21 1 -1 -10 21 -1 1 10zm213 1484l-1 -10 -21 1 1 10 21 -1zm782 -752l-1 -21 -10 1 1 21 10 -1zm-12 206l-22 -19 2 21 20 -2zm-727 612l-1 -10 -20 2 1 10 21 -2zm-117 -1366l-1 -10 -21 2 1 10 21 -1zm-50 744l-30 -26 1 7 19 20 10 -1zm857 -67l-30 -26 1 7 19 20 10 -1zm-709 844l-2 -28 -7 1 2 27 7 0zm856 -67l-2 -28 -7 1 3 28 7 -1zm13 -1356l-1 -17 -10 1 1 17 10 -1zm143 193l-1 -17 -10 1 1 17 10 -1zm-1078 -510l20 -23 -1 -7 -20 19 1 10zm149 1645l-1 -17 -10 1 1 17 10 -1zm-40 -865l-1 -17 -10 1 1 17 10 -1zm-31 -397l-1 -17 -10 1 1 17 10 -1zm887 330l-1 -17 -10 1 1 17 10 -1zm40 865l-1 -17 -10 1 1 17 10 -1zm-1014 450l-1 -10 -17 2 1 10 17 -2zm296 5l-1 -17 -10 1 1 17 10 -1zm-143 -55l-1 -10 -17 1 1 10 17 -1zm-217 -1546l-1 -17 -10 1 1 17 10 -1zm968 1241l-1 -17 -10 1 1 17 10 -1zm-47 288l-1 -10 -17 2 1 10 17 -2zm9 -2029l19 -23 -1 -7 -19 19 1 10zm287 2034l-1 -17 -10 1 1 17 10 -1zm-789 82l-1 -10 -17 2 1 10 17 -2zm429 -1683l-2 -17 -10 1 2 17 10 -1zm428 1617l-1 -10 -17 1 1 10 17 -1zm-189 -2073l-1 -17 -10 1 1 17 10 -1zm-21 2002l-1 -10 -17 1 1 10 17 -1zm57 -650l-1 -17 -10 1 1 17 10 -1zm-856 67l-1 -17 -10 1 1 17 10 -1zm-163 412l-1 -17 -10 1 2 17 10 -1zm187 -1348l-1 -10 -17 1 1 10 17 -1zm679 17l16 -22 -17 1 2 21zm-1175 -905l-1 -17 -10 1 1 17 10 -1zm494 1073l-2 -17 -10 1 2 17 10 -1zm904 -918l-17 1 -1 -10 17 -2 1 10zm-1079 817l16 -22 -17 1 2 21zm117 -499l-1 -17 -10 1 1 17 10 -1zm917 349l-1 -10 -17 1 1 10 17 -1zm-326 -579l-15 -9 -7 1 1 10 21 -2zm308 -288l-1 -10 -17 1 1 3 1 7 17 -1zm5 1187l0 -7 -21 2 0 7 21 -2zm-251 -730l-1 -7 -21 1 1 7 21 -1zm295 1790l-1 -7 -21 1 1 7 21 -1zm-794 -608l-7 0 -2 -20 7 -1 2 21zm-12 827l-1 -7 -21 2 1 7 21 -2zm869 -894l-7 0 -2 -20 7 -1 2 21zm-37 -466l-7 1 -1 -21 7 -1 1 21zm-936 510l-1 -7 -21 2 1 7 21 -2zm10 -362l-1 -7 -21 2 1 7 21 -2zm44 1060l0 -7 -21 1 0 7 21 -1zm-70 -1124l-2 -21 -7 1 2 21 7 -1zm872 359l-1 -7 -21 2 1 7 21 -2zm-776 -377l-7 1 -2 -21 7 -1 2 21zm881 1227l-1 -7 -21 2 1 7 21 -2zm-120 -1276l-2 -21 -7 1 2 21 7 -1zm-868 -89l-2 -21 -7 1 2 21 7 -1zm856 -67l-1 -21 -7 1 1 21 7 -1zm-1069 -445l-1 -7 -21 1 1 7 21 -1zm-228 -382l-11 -10 -7 1 1 10 17 -1zm147 1753l-17 2 -1 -7 17 -2 1 7zm856 -67l-17 2 -1 -7 17 -2 1 7zm-612 -60l-1 -7 -17 1 1 7 17 -1zm856 -67l-1 -7 -17 1 1 7 17 -1zm63 -1603l-2 -20 -6 0 4 14 -3 7 7 -1zm-1254 91l-1 -10 -3 0 -6 8 1 3 10 -1zm-46 -48l-1 -10 -7 0 1 10 7 0zm806 -53c2,-2 3,-5 3,-7l-10 8 7 -1zm-426 248l-1 -10 -3 1 1 7 0 4 4 -1zm481 -426l21 -1 1 3 -21 -2zm-480 437l0 -7 -3 1 4 6z"/>
 </g>
</svg>
